<svg id="car-wheel-svgrepo-com" xmlns="http://www.w3.org/2000/svg" width="64" height="64" viewBox="0 0 64 64">
  <path id="Path_1" data-name="Path 1" d="M32,0A32,32,0,1,0,64,32,32.036,32.036,0,0,0,32,0Zm0,54.728A22.728,22.728,0,1,1,54.728,32,22.728,22.728,0,0,1,32,54.728Z" fill="#d61239"/>
  <path id="Path_2" data-name="Path 2" d="M73.245,48.578A24.667,24.667,0,1,0,97.912,73.245,24.695,24.695,0,0,0,73.245,48.578ZM94.753,71.672H82.784a9.614,9.614,0,0,0-1.7-4.1l8.449-8.449A21.476,21.476,0,0,1,94.753,71.672ZM74.793,51.735a21.472,21.472,0,0,1,12.547,5.2l-8.448,8.448a9.616,9.616,0,0,0-4.1-1.7Zm-3.1,0V63.68a9.613,9.613,0,0,0-4.1,1.7L59.15,56.936A21.474,21.474,0,0,1,71.7,51.735ZM56.959,59.123l8.45,8.449a9.611,9.611,0,0,0-1.7,4.1H51.737A21.479,21.479,0,0,1,56.959,59.123ZM51.733,74.768H63.705a9.609,9.609,0,0,0,1.7,4.1L56.936,87.34A21.473,21.473,0,0,1,51.733,74.768ZM71.7,94.755a21.474,21.474,0,0,1-12.574-5.224L67.6,81.056a9.613,9.613,0,0,0,4.1,1.7Zm0-15.18V79.6a6.53,6.53,0,0,1-1.866-.776l.015-.015a6.568,6.568,0,0,1-2.189-2.189l-.014.014a6.528,6.528,0,0,1-.776-1.866h.022a6.349,6.349,0,0,1,0-3.1h-.022a6.522,6.522,0,0,1,.776-1.865l.014.014a6.57,6.57,0,0,1,2.189-2.189l-.015-.015a6.521,6.521,0,0,1,1.866-.776v.023a6.34,6.34,0,0,1,3.1,0v-.023a6.521,6.521,0,0,1,1.865.775l-.015.015a6.566,6.566,0,0,1,2.189,2.189l.014-.014a6.522,6.522,0,0,1,.776,1.866H79.6a6.349,6.349,0,0,1,0,3.1h.022a6.513,6.513,0,0,1-.776,1.866l-.014-.014a6.571,6.571,0,0,1-2.189,2.189l.015.014a6.522,6.522,0,0,1-1.865.776v-.023a6.341,6.341,0,0,1-3.1,0Zm3.1,15.18v-12a9.616,9.616,0,0,0,4.1-1.7l8.474,8.475A21.472,21.472,0,0,1,74.793,94.755ZM89.554,87.34l-8.473-8.473a9.618,9.618,0,0,0,1.7-4.1H94.757A21.474,21.474,0,0,1,89.554,87.34Z" transform="translate(-41.245 -41.245)" fill="#d61239"/>
</svg>
